<?xml version="1.0" encoding="UTF-8" standalone="no"?>
<!-- Created with Inkscape (http://www.inkscape.org/) -->

<svg
   width="512"
   height="512"
   viewBox="0 0 512 512"
   version="1.1"
   id="svg5"
   xmlns="http://www.w3.org/2000/svg"
   xmlns:svg="http://www.w3.org/2000/svg">
  <defs
     id="defs2" />
  <g
     id="layer1">
    <path
       style="fill:#ff5555;fill-rule:evenodd;stroke:#000000"
       id="path44596"
       d="m 255.1407,171.62403 c 5.32719,8.63165 -5.17948,17.18827 -12.89983,18.13326 -16.29908,1.99504 -27.92019,-14.16838 -27.65064,-29.08011 0.42417,-23.4657 23.4684,-39.11823 45.55743,-37.25209 30.64,2.58854 50.5316,32.91992 46.92273,62.21769 -4.66328,37.85769 -42.46742,62.07775 -79.01189,56.65031 -45.11693,-6.70059 -73.71842,-52.08606 -66.42604,-95.91219 8.72108,-52.412453 61.76156,-85.432201 112.90053,-76.243422 59.73952,10.734148 97.20561,71.484572 86.09747,129.964172 -2.13307,11.22969 -5.92395,22.13324 -11.18477,32.27985"
       transform="matrix(2.1895742,0,0,2.1895742,-316.65803,-85.198431)" />
  </g>
</svg>
