<?xml version="1.0" encoding="UTF-8" standalone="no"?>
<!-- Created with Inkscape (http://www.inkscape.org/) -->

<svg
   width="512"
   height="512"
   viewBox="0 0 512 512"
   version="1.1"
   id="svg5"
   xmlns="http://www.w3.org/2000/svg"
   xmlns:svg="http://www.w3.org/2000/svg">
  <defs
     id="defs2">
    <rect
       x="120.94611"
       y="408.3319"
       width="303.3957"
       height="52.309598"
       id="rect47800" />
    <rect
       x="123.79939"
       y="181.974"
       width="328.12379"
       height="161.68419"
       id="rect15879" />
  </defs>
  <g
     id="layer1">
    <rect
       style="fill:#87aade"
       id="rect61"
       width="480"
       height="480"
       x="16"
       y="16"
       ry="80" />
    <text
       xml:space="preserve"
       id="text15877"
       style="font-style:normal;font-weight:normal;font-size:64px;line-height:1.25;font-family:sans-serif;white-space:pre;shape-inside:url(#rect15879);fill:#000000;fill-opacity:1;stroke:none"
       transform="translate(-22.158203,117.93438)"><tspan
         x="123.79883"
         y="246.29461"
         id="tspan170632"><tspan
           style="font-family:'文泉驿等宽微米黑';-inkscape-font-specification:'文泉驿等宽微米黑'"
           id="tspan170630">d7z-team</tspan></tspan></text>
    <path
       style="fill:#ff5555;fill-rule:evenodd;stroke:#000000"
       id="path44596"
       d="m 255.1407,171.62403 c 5.32719,8.63165 -5.17948,17.18827 -12.89983,18.13326 -16.29908,1.99504 -27.92019,-14.16838 -27.65064,-29.08011 0.42417,-23.4657 23.4684,-39.11823 45.55743,-37.25209 30.64,2.58854 50.5316,32.91992 46.92273,62.21769 -4.66328,37.85769 -42.46742,62.07775 -79.01189,56.65031 -45.11693,-6.70059 -73.71842,-52.08606 -66.42604,-95.91219 8.72108,-52.412453 61.76156,-85.432201 112.90053,-76.243422 59.73952,10.734148 97.20561,71.484572 86.09747,129.964172 -2.13307,11.22969 -5.92395,22.13324 -11.18477,32.27985" />
    <text
       xml:space="preserve"
       id="text47798"
       style="fill:black;fill-opacity:1;line-height:1.25;stroke:none;font-family:sans-serif;font-style:normal;font-weight:normal;font-size:40px;white-space:pre;shape-inside:url(#rect47800)" />
    <text
       xml:space="preserve"
       style="font-style:normal;font-weight:normal;font-size:32px;line-height:1.25;font-family:sans-serif;fill:#ff5555;fill-opacity:1;stroke:#000000;stroke-width:0;stroke-miterlimit:4;stroke-dasharray:none;stroke-opacity:1"
       x="199.82393"
       y="440.66879"
       id="text52470"><tspan
         id="tspan52468"
         x="199.82393"
         y="440.66879"
         style="font-size:32px;fill:#1a1a1a;stroke:#000000;stroke-width:0;stroke-linecap:round;stroke-linejoin:round;stroke-miterlimit:4;stroke-dasharray:none;stroke-opacity:1">d7z.net </tspan></text>
  </g>
</svg>
