<?xml version="1.0" encoding="UTF-8" standalone="no"?>
<!-- Created with Inkscape (http://www.inkscape.org/) -->

<svg
   width="512"
   height="512"
   viewBox="0 0 512 512"
   version="1.1"
   id="svg5"
   inkscape:version="1.1.1 (3bf5ae0d25, 2021-09-20, custom)"
   sodipodi:docname="logo-inkspace.svg"
   inkscape:export-filename="/home/dragon/logo.png"
   inkscape:export-xdpi="96"
   inkscape:export-ydpi="96"
   xmlns:inkscape="http://www.inkscape.org/namespaces/inkscape"
   xmlns:sodipodi="http://sodipodi.sourceforge.net/DTD/sodipodi-0.dtd"
   xmlns="http://www.w3.org/2000/svg"
   xmlns:svg="http://www.w3.org/2000/svg">
  <sodipodi:namedview
     id="namedview7"
     pagecolor="#505050"
     bordercolor="#eeeeee"
     borderopacity="1"
     inkscape:pageshadow="0"
     inkscape:pageopacity="0"
     inkscape:pagecheckerboard="0"
     inkscape:document-units="px"
     showgrid="false"
     inkscape:zoom="1.2617188"
     inkscape:cx="255.60372"
     inkscape:cy="255.60372"
     inkscape:window-width="1920"
     inkscape:window-height="999"
     inkscape:window-x="0"
     inkscape:window-y="40"
     inkscape:window-maximized="1"
     inkscape:current-layer="layer1" />
  <defs
     id="defs2" />
  <g
     inkscape:label="图层 1"
     inkscape:groupmode="layer"
     id="layer1">
    <path
       sodipodi:type="spiral"
       style="fill:#ff5555;fill-rule:evenodd;stroke:#000000"
       id="path44596"
       sodipodi:cx="247.67978"
       sodipodi:cy="169.60991"
       sodipodi:expansion="1.03"
       sodipodi:revolution="2.2"
       sodipodi:radius="119.56828"
       sodipodi:argument="-19.553495"
       sodipodi:t0="0.07"
       d="m 255.1407,171.62403 c 5.32719,8.63165 -5.17948,17.18827 -12.89983,18.13326 -16.29908,1.99504 -27.92019,-14.16838 -27.65064,-29.08011 0.42417,-23.4657 23.4684,-39.11823 45.55743,-37.25209 30.64,2.58854 50.5316,32.91992 46.92273,62.21769 -4.66328,37.85769 -42.46742,62.07775 -79.01189,56.65031 -45.11693,-6.70059 -73.71842,-52.08606 -66.42604,-95.91219 8.72108,-52.412453 61.76156,-85.432201 112.90053,-76.243422 59.73952,10.734148 97.20561,71.484572 86.09747,129.964172 -2.13307,11.22969 -5.92395,22.13324 -11.18477,32.27985"
       transform="matrix(2.1895742,0,0,2.1895742,-316.65803,-85.198431)" />
  </g>
</svg>
